<svg width="46" height="46" viewBox="0 0 46 46" fill="none" xmlns="http://www.w3.org/2000/svg">
<path d="M38.5567 32.9316L32.9317 38.5566C32.5336 38.9495 31.9968 39.1698 31.4375 39.1698C30.8782 39.1698 30.3414 38.9495 29.9434 38.5566C29.7467 38.3607 29.5907 38.1278 29.4842 37.8714C29.3778 37.615 29.323 37.3401 29.323 37.0625C29.323 36.7849 29.3778 36.51 29.4842 36.2536C29.5907 35.9972 29.7467 35.7643 29.9434 35.5684L31.9649 33.5469H8.9375C8.37806 33.5469 7.84153 33.3246 7.44595 32.9291C7.05036 32.5335 6.82813 31.9969 6.82813 31.4375C6.82813 30.8781 7.05036 30.3415 7.44595 29.9459C7.84153 29.5504 8.37806 29.3281 8.9375 29.3281H31.9649L29.9434 27.3066C29.5471 26.9104 29.3245 26.3729 29.3245 25.8125C29.3245 25.2521 29.5471 24.7146 29.9434 24.3184C30.3396 23.9221 30.8771 23.6995 31.4375 23.6995C31.9979 23.6995 32.5354 23.9221 32.9317 24.3184L38.5567 29.9434C38.7533 30.1393 38.9093 30.3722 39.0158 30.6286C39.1223 30.885 39.1771 31.1599 39.1771 31.4375C39.1771 31.7151 39.1223 31.99 39.0158 32.2464C38.9093 32.5028 38.7533 32.7357 38.5567 32.9316ZM13.0684 21.6816C13.4664 22.0745 14.0032 22.2948 14.5625 22.2948C15.1218 22.2948 15.6586 22.0745 16.0566 21.6816C16.2533 21.4857 16.4093 21.2528 16.5158 20.9964C16.6223 20.74 16.6771 20.4651 16.6771 20.1875C16.6771 19.9099 16.6223 19.635 16.5158 19.3786C16.4093 19.1222 16.2533 18.8893 16.0566 18.6934L14.0352 16.6719H37.0625C37.622 16.6719 38.1585 16.4496 38.5541 16.0541C38.9496 15.6585 39.1719 15.1219 39.1719 14.5625C39.1719 14.0031 38.9496 13.4665 38.5541 13.0709C38.1585 12.6754 37.622 12.4531 37.0625 12.4531H14.0352L16.0566 10.4316C16.2529 10.2354 16.4085 10.0025 16.5147 9.74612C16.6209 9.48976 16.6755 9.21498 16.6755 8.9375C16.6755 8.66001 16.6209 8.38524 16.5147 8.12887C16.4085 7.87251 16.2529 7.63957 16.0566 7.44336C15.8604 7.24714 15.6275 7.0915 15.3711 6.98531C15.1148 6.87912 14.84 6.82446 14.5625 6.82446C14.0021 6.82446 13.4646 7.04709 13.0684 7.44336L7.44336 13.0684C7.24671 13.2643 7.09068 13.4972 6.98422 13.7536C6.87775 14.01 6.82295 14.2849 6.82295 14.5625C6.82295 14.8401 6.87775 15.115 6.98422 15.3714C7.09068 15.6278 7.24671 15.8607 7.44336 16.0566L13.0684 21.6816Z" fill="#099B7E"/>
</svg>
