<svg width="48" height="48" viewBox="0 0 48 48" fill="none" xmlns="http://www.w3.org/2000/svg">
<path d="M24 47.8333C19.9556 47.8333 16.2361 46.9125 12.8417 45.0708C9.44724 43.2291 6.66669 40.7736 4.50002 37.7042V43.5H0.166687V30.5H13.1667V34.8333H7.80419C9.53752 37.4333 11.8219 39.5278 14.6574 41.1166C17.4914 42.7055 20.6056 43.5 24 43.5C26.7083 43.5 29.2455 42.9858 31.6115 41.9573C33.9761 40.9274 36.0344 39.5364 37.7865 37.7843C39.5372 36.0336 40.9275 33.9753 41.9573 31.6093C42.9858 29.2448 43.5 26.7083 43.5 24H47.8333C47.8333 27.2861 47.2108 30.3736 45.9657 33.2625C44.7191 36.1514 43.0125 38.6791 40.8458 40.8458C38.6792 43.0125 36.1514 44.7184 33.2625 45.9635C30.3736 47.21 27.2861 47.8333 24 47.8333ZM22.05 39.1666V36.35C20.3528 35.9528 18.9719 35.2219 17.9074 34.1573C16.8414 33.0913 16.0556 31.6917 15.55 29.9583L19.125 28.55C19.5583 30.0305 20.2358 31.1406 21.1573 31.8802C22.0775 32.6212 23.1333 32.9916 24.325 32.9916C25.5167 32.9916 26.5365 32.7114 27.3843 32.151C28.2337 31.592 28.6583 30.7167 28.6583 29.525C28.6583 28.4778 28.2163 27.6292 27.3323 26.9792C26.4469 26.3292 24.8667 25.5889 22.5917 24.7583C20.4611 24 18.8997 23.0972 17.9074 22.05C16.9136 21.0028 16.4167 19.6305 16.4167 17.9333C16.4167 16.4528 16.9316 15.1073 17.9615 13.8968C18.99 12.6878 20.3889 11.9028 22.1583 11.5417V8.83332H25.95V11.5417C27.25 11.65 28.433 12.1736 29.499 13.1125C30.5636 14.0514 31.2945 15.1528 31.6917 16.4167L28.225 17.825C27.9361 16.9944 27.4667 16.2997 26.8167 15.7407C26.1667 15.1802 25.2639 14.9 24.1083 14.9C22.8445 14.9 21.8789 15.1708 21.2115 15.7125C20.5427 16.2542 20.2083 16.9944 20.2083 17.9333C20.2083 18.8722 20.6236 19.6125 21.4542 20.1542C22.2847 20.6958 23.7833 21.3278 25.95 22.05C28.55 22.9889 30.2833 24.0903 31.15 25.3542C32.0167 26.618 32.45 28.0083 32.45 29.525C32.45 30.5722 32.2695 31.493 31.9083 32.2875C31.5472 33.0819 31.0691 33.7586 30.474 34.3176C29.8775 34.8781 29.182 35.3295 28.3875 35.6718C27.5931 36.0156 26.7445 36.2778 25.8417 36.4583V39.1666H22.05ZM0.166687 24C0.166687 20.7139 0.789965 17.6264 2.03652 14.7375C3.28163 11.8486 4.98752 9.32082 7.15419 7.15415C9.32085 4.98749 11.8486 3.28088 14.7375 2.03432C17.6264 0.789212 20.7139 0.166656 24 0.166656C28.0445 0.166656 31.7639 1.08749 35.1583 2.92916C38.5528 4.77082 41.3333 7.22638 43.5 10.2958V4.49999H47.8333V17.5H34.8333V13.1667H40.1958C38.4625 10.5667 36.1781 8.47221 33.3427 6.88332C30.5087 5.29443 27.3945 4.49999 24 4.49999C21.2917 4.49999 18.7552 5.01421 16.3907 6.04265C14.0247 7.07254 11.9664 8.46282 10.2157 10.2135C8.46357 11.9656 7.07257 14.0239 6.04269 16.3885C5.01424 18.7545 4.50002 21.2917 4.50002 24H0.166687Z" fill="white"/>
</svg>
