<svg width="29" height="30" viewBox="0 0 29 30" fill="none" xmlns="http://www.w3.org/2000/svg">
<path fill-rule="evenodd" clip-rule="evenodd" d="M3.67915 14.6075C3.67915 20.4926 7.94601 24.5023 12.7387 25.3317C12.8691 25.3543 12.9938 25.4024 13.1056 25.4732C13.2174 25.5439 13.3141 25.636 13.3903 25.7442C13.4665 25.8524 13.5207 25.9745 13.5497 26.1036C13.5787 26.2327 13.582 26.3662 13.5594 26.4966C13.5368 26.6269 13.4888 26.7516 13.418 26.8634C13.3473 26.9752 13.2552 27.072 13.147 27.1482C13.0388 27.2244 12.9167 27.2785 12.7876 27.3076C12.6585 27.3366 12.525 27.3399 12.3946 27.3173C6.76668 26.3429 1.66461 21.5985 1.66461 14.6075C1.66461 11.636 3.01601 9.30054 4.59361 7.52574C5.72461 6.25361 7.01801 5.21928 8.05815 4.42854H4.89521C4.63884 4.42854 4.39296 4.3267 4.21167 4.14541C4.03039 3.96413 3.92854 3.71825 3.92854 3.46188C3.92854 3.2055 4.03039 2.95962 4.21167 2.77834C4.39296 2.59705 4.63884 2.49521 4.89521 2.49521H10.6952C10.9516 2.49521 11.1975 2.59705 11.3787 2.77834C11.56 2.95962 11.6619 3.2055 11.6619 3.46188V9.26188C11.6619 9.51825 11.56 9.76413 11.3787 9.94541C11.1975 10.1267 10.9516 10.2285 10.6952 10.2285C10.4388 10.2285 10.193 10.1267 10.0117 9.94541C9.83039 9.76413 9.72855 9.51825 9.72855 9.26188V5.69294L9.72661 5.69681C8.62075 6.52814 7.27128 7.54701 6.10161 8.86361C4.71928 10.418 3.67915 12.2991 3.67915 14.6075ZM25.1546 15.3925C25.1546 9.56927 20.9786 5.58468 16.2477 4.69534C16.1159 4.67297 15.9898 4.62456 15.8769 4.55295C15.7639 4.48133 15.6664 4.38794 15.5899 4.27822C15.5134 4.16849 15.4596 4.04464 15.4315 3.91389C15.4034 3.78313 15.4016 3.64809 15.4262 3.51664C15.4509 3.38519 15.5015 3.25997 15.575 3.14827C15.6486 3.03658 15.7436 2.94065 15.8547 2.86608C15.9657 2.79152 16.0904 2.73981 16.2217 2.71397C16.3529 2.68814 16.4879 2.6887 16.6189 2.71561C22.1753 3.75961 27.1691 8.47694 27.1691 15.3925C27.1691 18.364 25.8177 20.6975 24.2401 22.4743C23.1091 23.7464 21.8157 24.7807 20.7756 25.5715H23.9385C24.1949 25.5715 24.4408 25.6733 24.6221 25.8546C24.8034 26.0359 24.9052 26.2818 24.9052 26.5381C24.9052 26.7945 24.8034 27.0404 24.6221 27.2217C24.4408 27.403 24.1949 27.5048 23.9385 27.5048H18.1385C17.8822 27.5048 17.6363 27.403 17.455 27.2217C17.2737 27.0404 17.1719 26.7945 17.1719 26.5381V20.7381C17.1719 20.4818 17.2737 20.2359 17.455 20.0546C17.6363 19.8733 17.8822 19.7715 18.1385 19.7715C18.3949 19.7715 18.6408 19.8733 18.8221 20.0546C19.0034 20.2359 19.1052 20.4818 19.1052 20.7381V24.3051H19.1091C20.213 23.4699 21.5644 22.453 22.7321 21.1345C24.1145 19.582 25.1546 17.7028 25.1546 15.3925Z" fill="white" fill-opacity="0.7"/>
</svg>
